<svg id="Layer_1" data-name="Layer 1" xmlns="http://www.w3.org/2000/svg" viewBox="0 0 125 125">
  <defs>
    <style>
      .cls-1 {
        fill: #fff;
      }
    </style>
  </defs>
  <title>learn</title>
  <path d="M63.877,5.454A59.35,59.35,0,1,0,123,64.8,59.239,59.239,0,0,0,63.877,5.454Zm0,107.407A48.057,48.057,0,1,1,111.753,64.8,47.967,47.967,0,0,1,63.877,112.86Zm2.942-53.8H43.806V69.965H66.819L66.71,85.582,88,64.511,66.71,43.44Z"/>
  <path class="cls-1" d="M61.661,3.079A58.725,58.725,0,1,0,120.379,61.8,58.722,58.722,0,0,0,61.661,3.079Zm0,106.276A47.55,47.55,0,1,1,109.206,61.8,47.548,47.548,0,0,1,61.661,109.354Zm2.921-53.237H41.728V66.911H64.582L64.474,82.363,85.615,61.514,64.474,40.665Z"/>
</svg>
